<svg width="800" height="600" xmlns="http://www.w3.org/2000/svg">
 <!-- Created with Method Draw - http://github.com/duopixel/Method-Draw/ -->
 <g id="Layer_1">
  <title>Layer 1</title>
  <path d="m524.5,171c0,-1 -1,-2 -1,-4c0,-3 -1,-5 -1,-7c0,-1 -1,-2 -1,-3c0,-1 -0.54047,-2.0535 -1,-4c-0.51373,-2.17625 -1.48627,-2.82375 -2,-5c-0.45953,-1.9465 -0.61731,-3.07613 -1,-4c-0.5412,-1.30656 -1.23462,-3.15224 -2,-5c-0.5412,-1.30656 -1,-2 -2,-3c0,0 0,-1 -1,-2c-1,-1 -0.61731,-2.07613 -1,-3c-0.5412,-1.30656 -2,-2 -3,-3c-1,-1 -2,-2 -4,-4c-1,-1 -1.85272,-2.1731 -3,-3c-1.81396,-1.30745 -4.18604,-2.69255 -6,-4c-2.29456,-1.65381 -2.59399,-2.513 -5,-4c-2.69,-1.66251 -4.02673,-1.77025 -5,-2c-2.17627,-0.51375 -3,-2 -6,-3c-3,-1 -6.133,-1.5695 -10,-3c-2.09717,-0.77579 -3.82376,-1.48626 -6,-2c-0.97324,-0.22975 -5,-1 -6,-1c-2,0 -4.0535,-0.5405 -6,-1c-2.17624,-0.51374 -4.87857,-1.49346 -8,-2c-2.96127,-0.48055 -6,0 -8,0c-4,0 -5.87857,-0.49346 -9,-1c-2.96127,-0.48055 -5,0 -6,0c-1,0 -2,0 -4,0c-2,0 -5,0 -9,0c-4,0 -6,0 -8,0c-2,0 -4,0 -6,0c-2,0 -4,0 -7,0c-3,0 -6,0 -9,0c-4,0 -6,0 -8,0c-2,0 -4,0 -6,0c-2,0 -4.07843,0.78985 -7,2c-2.06586,0.85571 -3.88153,2.19028 -7,4c-1.93399,1.12234 -4,2 -6,3c-2,1 -3.81265,3.2068 -6,5c-2.78833,2.28587 -3.81265,4.2068 -6,6c-2.78833,2.28587 -5.61383,3.297 -8,6c-1.47983,1.67633 -2.70547,3.34619 -5,5c-1.814,1.30745 -4,2 -6,4c-2,2 -3.186,2.69255 -5,4c-1.14728,0.8269 -2.34619,1.70546 -4,4c-1.30746,1.814 -0.77023,4.02675 -1,5c-0.51373,2.17625 -1.5405,4.0535 -2,6c-0.51373,2.17625 -0.5405,4.0535 -1,6c-0.51373,2.17625 -1,4 -1,8c0,3 0,6 0,9c0,3 0,5 0,8c0,2 0,4 0,5c0,1 -0.22977,1.02675 0,2c0.51373,2.17625 2.48627,3.82375 3,6c0.22977,0.97325 0.77023,3.02675 1,4c0.51373,2.17625 1.77023,4.02675 2,5c0.51373,2.17625 2.48627,3.82375 3,6c0.4595,1.9465 2.14429,3.93414 3,6c1.21014,2.92157 1.71411,4.21167 4,7c1.79318,2.18735 2.69254,3.186 4,5c1.65381,2.29454 3.69254,4.186 5,6c0.8269,1.14728 3.34619,2.70547 5,5c1.30746,1.814 3,5 4,6c2,2 3,4 4,5c3,3 6,5 7,6c2,2 4,2 6,3c2,1 5.00751,1.87781 6,2c4.09222,0.50378 6.96384,2.11588 10,3c3.95868,1.15277 6,1 8,1c2,0 4,0 6,0c3,0 5,0 9,0c2,0 2.93414,-0.14429 5,-1c2.92157,-1.21014 5.07843,-0.78986 8,-2c2.06586,-0.85571 3.81265,-2.20682 6,-4c2.78833,-2.28589 6.40402,-2.41156 11,-6c2.22937,-1.74066 4.22836,-2.85196 7,-4c2.61313,-1.0824 3.54916,-3.95517 7,-5c1.91418,-0.57956 4,-1 6,-2c2,-1 6,-3 8,-4c2,-1 3.82376,-2.48627 6,-3c0.97324,-0.22977 3,-1 5,-1c2,0 5,0 7,0c2,0 5,0 8,0c2,0 5,0 8,0c3,0 5,0 8,0c1,0 2,0 5,0c1,0 4.07611,1.61731 5,2c1.30658,0.5412 3.31,1.33749 6,3c3.60901,2.2305 6,5 8,7c3,3 5,5 7,8c2,3 5.18604,5.69254 7,7c2.29456,1.65381 4,4 5,6c1,2 3.14429,5.93414 4,8c1.21014,2.92157 1.14429,4.93414 2,7c1.21014,2.92157 2.49347,4.87857 3,8c0.48053,2.96127 2.49622,5.90778 3,10c0.36658,2.97751 0,6 0,8c0,3 0,7 0,9c0,4 0,6 0,9c0,2 0,4 0,7c0,4 0.32037,8.02582 0,10c-0.50653,3.12143 -2.22418,4.90283 -3,7c-1.43048,3.867 -2,7 -3,9c-2,4 -3.19031,6.88153 -5,10c-1.12231,1.93399 -2.14679,3.86325 -4,6c-3.276,3.77728 -5,7 -8,10c-4,4 -6.81268,6.20682 -9,8c-2.78833,2.28589 -7.08746,3.79395 -12,6c-4.07965,1.83203 -8.80566,4.44839 -13,6c-3.867,1.43048 -8.03067,1.91232 -11,3c-5.05658,1.85226 -6.82376,3.48627 -9,4c-3.89301,0.91901 -6,2 -9,2c-3,0 -7,1 -11,1c-4,0 -8,0 -12,0c-6,0 -11,0 -15,0c-5,0 -9,0 -13,0c-4,0 -9,0 -14,0c-6,0 -11.98453,-0.08075 -17,-1c-5.98309,-1.09662 -8.82376,-1.48627 -11,-2c-1.9465,-0.4595 -3.82376,-1.48627 -6,-2c-1.9465,-0.4595 -2.82376,-1.48627 -5,-2c-1.9465,-0.4595 -4.02676,-1.77023 -5,-2c-2.17624,-0.51373 -4.85272,-3.1731 -6,-4c-1.814,-1.30746 -3.74673,-2.37134 -8,-5c-3.80423,-2.35114 -8.41208,-2.96854 -12,-5c-1.23065,-0.69678 -2.06601,-0.87766 -4,-2c-3.11847,-1.80972 -5.186,-3.69254 -7,-5c-2.29453,-1.65381 -3,-3 -4,-4c-2,-2 -4,-3 -6,-5c-2,-2 -2,-3 -2,-4c0,-1 -1,-3 -1,-4c0,-1 -0.5405,-2.0535 -1,-4c-0.51373,-2.17624 -1.61731,-4.07611 -2,-5c-0.5412,-1.30655 -2.48627,-3.82376 -3,-6c-0.4595,-1.9465 0,-4 0,-6c0,-2 -1,-4 -1,-6c0,-2 -0.48627,-3.82376 -1,-6c-0.22977,-0.97324 0,-3 0,-5c0,-1 -0.77023,-3.02676 -1,-4c-0.51373,-2.17624 -0.61731,-3.07611 -1,-4c-0.5412,-1.30655 -1,-2 -1,-4c0,-2 0,-3 0,-4l0,0" id="svg_1" opacity="undefined" fill-opacity="null" stroke-opacity="null" stroke-dasharray="2,2" stroke-width="45" stroke="#000" fill="none"/>
  <text font-style="normal" font-weight="normal" xml:space="preserve" text-anchor="start" font-family="monospace" font-size="28" id="svg_3" y="339" x="351.5" opacity="undefined" fill-opacity="null" stroke-opacity="null" stroke-dasharray="null" stroke-width="0" stroke="#000" fill="#000000">itharthan</text>
 </g>
</svg>